<?xml version="1.0" standalone="no"?>
<!DOCTYPE svg PUBLIC "-//W3C//DTD SVG 20010904//EN"
 "http://www.w3.org/TR/2001/REC-SVG-20010904/DTD/svg10.dtd">
<svg version="1.0" xmlns="http://www.w3.org/2000/svg"
 width="270.000000pt" height="270.000000pt" viewBox="0 0 270.000000 270.000000"
 preserveAspectRatio="xMidYMid meet">
<metadata>
Created by potrace 1.11, written by Peter Selinger 2001-2013
</metadata>
<g transform="translate(0.000000,270.000000) scale(0.100000,-0.100000)"
fill="#000000" stroke="none">
<path d="M525 2650 c6 -10 3 -12 -12 -8 -12 3 -27 2 -34 -3 -11 -7 -11 -9 -1
-9 8 0 10 -5 5 -12 -11 -19 -12 -37 -2 -44 5 -3 9 -10 9 -15 0 -6 -4 -8 -8 -5
-5 3 -9 -1 -9 -9 0 -8 4 -15 9 -15 4 0 8 -5 8 -11 0 -5 -6 -7 -12 -3 -9 5 -9
2 1 -9 11 -14 11 -17 0 -17 -12 0 -12 -2 0 -9 11 -7 11 -9 0 -14 -12 -5 -12
-6 0 -6 11 -1 11 -4 1 -16 -10 -12 -10 -15 0 -15 9 0 9 -4 -1 -17 -12 -14 -12
-15 0 -9 10 7 11 3 5 -15 -11 -37 -12 -73 -1 -86 6 -9 5 -13 -3 -13 -9 0 -9
-4 1 -17 12 -15 12 -16 -1 -8 -12 6 -13 5 -2 -6 14 -15 16 -33 4 -25 -11 6 -9
-34 1 -51 4 -6 1 -14 -5 -16 -9 -4 -8 -6 2 -6 13 -1 13 -2 0 -11 -12 -8 -12
-10 -1 -10 11 0 11 -3 1 -15 -10 -12 -10 -15 0 -15 9 0 9 -4 -1 -17 -12 -14
-12 -16 0 -8 11 6 13 4 7 -11 -14 -34 -15 -54 -4 -54 7 0 6 -6 -2 -15 -7 -8
-8 -15 -3 -15 5 0 9 -9 10 -20 1 -11 -2 -18 -6 -16 -10 7 -8 -35 2 -51 5 -8 3
-13 -4 -13 -8 0 -7 -5 2 -17 12 -15 12 -16 -1 -8 -12 6 -13 5 -2 -6 14 -15 16
-33 3 -25 -11 7 -9 -13 2 -31 5 -8 3 -13 -5 -13 -9 0 -9 -3 2 -10 13 -8 13
-10 1 -10 -12 0 -12 -3 -3 -12 8 -8 8 -15 1 -24 -7 -8 -7 -14 1 -19 5 -3 10
-11 10 -16 0 -6 -4 -8 -8 -5 -10 6 -9 -51 1 -60 10 -10 9 -26 -1 -20 -4 2 -7
-11 -7 -29 0 -18 3 -31 7 -29 8 5 5 -17 -5 -33 -5 -8 -3 -13 4 -13 8 0 7 -5
-2 -17 -10 -11 -10 -14 -1 -9 6 4 12 3 12 -3 0 -5 -6 -12 -12 -14 -10 -4 -9
-6 1 -6 10 -1 11 -4 2 -15 -9 -10 -9 -16 -1 -21 8 -5 8 -11 -1 -21 -9 -11 -9
-14 1 -14 9 0 9 -4 -1 -17 -10 -11 -10 -14 -2 -9 7 4 13 3 13 -3 0 -5 -6 -12
-12 -14 -10 -4 -9 -6 1 -6 10 -1 11 -4 2 -15 -9 -10 -9 -16 -1 -21 8 -5 8 -11
-1 -21 -9 -11 -9 -14 1 -14 10 0 10 -3 1 -14 -8 -10 -9 -16 -1 -21 5 -3 10
-11 10 -16 0 -6 -4 -8 -8 -5 -10 6 -9 -51 1 -60 10 -10 9 -26 -1 -20 -4 2 -7
-13 -7 -35 0 -21 4 -39 9 -39 4 0 3 -7 -4 -15 -7 -8 -8 -15 -3 -15 5 0 9 -9
10 -20 1 -11 -2 -18 -6 -16 -10 7 -8 -35 2 -51 5 -8 3 -13 -4 -13 -8 0 -7 -5
2 -17 12 -15 12 -16 -1 -8 -12 6 -13 5 -2 -6 14 -15 16 -33 3 -25 -11 7 -9
-13 2 -31 5 -8 3 -13 -5 -13 -9 0 -9 -3 2 -10 13 -8 13 -10 0 -10 -10 0 -11
-3 -2 -12 6 -6 8 -18 3 -27 -9 -20 -8 -52 2 -69 5 -7 3 -12 -4 -12 -8 0 -7 -5
2 -17 12 -15 12 -16 -1 -8 -12 6 -13 5 -2 -6 14 -15 16 -33 4 -25 -11 6 -9
-34 1 -51 5 -8 3 -13 -5 -13 -10 0 -10 -2 1 -9 11 -7 11 -9 0 -14 -12 -5 -12
-6 0 -6 11 -1 11 -4 1 -16 -10 -12 -10 -15 0 -15 9 0 9 -4 -1 -17 -12 -14 -12
-15 0 -9 10 7 11 3 5 -15 -11 -37 -12 -73 -1 -86 6 -9 5 -13 -3 -13 -9 0 -9
-4 1 -17 12 -15 12 -16 -1 -8 -12 6 -13 5 -2 -6 14 -15 16 -33 4 -25 -11 6 -9
-34 1 -51 5 -8 3 -13 -5 -13 -10 0 -10 -2 1 -9 11 -7 11 -9 0 -14 -12 -5 -12
-6 0 -6 11 -1 11 -4 1 -16 -10 -12 -10 -15 0 -15 9 0 9 -4 -1 -17 -12 -14 -12
-16 0 -8 11 6 13 4 7 -11 -13 -32 -15 -55 -5 -49 5 4 9 1 9 -4 0 -6 -5 -11
-12 -11 -6 0 -3 -6 8 -14 10 -8 21 -10 22 -5 2 5 8 9 13 9 4 0 6 -8 2 -17 -5
-15 -3 -16 8 -5 17 15 43 16 33 0 -4 -6 3 -4 15 5 25 17 55 12 44 -7 -4 -7 -2
-7 8 1 12 10 18 10 29 0 10 -10 12 -9 7 5 -5 13 -1 15 21 9 15 -5 33 -6 41 -3
9 3 11 0 7 -9 -4 -8 -1 -6 7 4 18 22 28 22 20 0 -5 -15 -3 -16 8 -5 7 6 17 12
22 12 4 0 5 -6 2 -12 -4 -7 0 -5 8 5 18 22 28 22 20 -1 -5 -14 -3 -15 8 -4 16
14 33 16 24 2 -3 -6 1 -7 9 -4 9 3 13 11 9 18 -3 6 4 2 17 -9 19 -16 22 -17
17 -3 -5 14 -1 15 21 9 15 -5 33 -6 41 -3 9 3 11 0 7 -9 -4 -8 -1 -6 7 4 15
18 28 23 26 9 -3 -19 2 -26 10 -13 7 11 13 12 23 3 9 -7 19 -8 28 -2 20 13 33
12 24 -1 -3 -6 6 -4 22 4 26 14 42 57 21 57 -5 0 -4 6 2 14 8 10 9 16 1 21 -5
3 -10 11 -10 16 0 6 4 8 8 5 5 -3 9 1 9 9 0 8 -4 12 -9 9 -4 -3 -8 -1 -8 5 0
5 5 13 10 16 8 5 8 11 1 19 -6 7 -8 15 -5 19 11 11 11 57 0 57 -6 0 -4 5 4 10
13 9 13 10 0 10 -13 0 -13 1 0 10 12 8 12 10 -5 10 -17 0 -17 2 -5 10 8 5 11
10 7 10 -4 0 -3 9 3 19 7 14 7 20 -1 23 -7 2 -9 13 -5 26 4 13 12 19 18 16 7
-4 8 -2 4 4 -4 7 -15 12 -24 12 -15 0 -15 2 -2 10 8 5 11 10 7 10 -4 0 -3 9 3
20 7 13 7 20 0 20 -11 0 -8 48 4 68 4 7 2 12 -3 12 -6 0 -11 5 -11 11 0 5 6 7
13 3 10 -6 10 -4 0 7 -15 15 -18 33 -5 25 5 -3 9 1 9 9 0 8 -4 12 -9 9 -4 -3
-8 -1 -8 5 0 5 5 13 10 16 8 5 8 11 1 19 -6 7 -8 15 -5 19 11 11 11 57 0 57
-6 0 -4 5 4 10 13 9 13 10 0 10 -13 0 -13 1 0 10 12 8 12 10 -5 10 -17 0 -17
2 -5 10 8 5 11 10 7 10 -4 0 -3 9 3 20 6 12 7 20 1 20 -10 0 -8 96 2 107 4 3
-1 15 -10 26 -10 11 -12 17 -5 13 10 -6 12 1 8 32 -3 26 0 42 7 46 9 3 9 5 0
5 -7 1 -13 6 -13 12 0 5 5 7 11 3 6 -3 15 0 20 7 6 9 8 3 5 -18 -2 -21 2 -34
11 -38 8 -3 12 -12 9 -20 -3 -8 0 -15 6 -15 6 0 8 -3 5 -7 -4 -3 1 -12 11 -20
10 -9 11 -12 2 -7 -11 6 -10 2 3 -13 9 -11 17 -27 17 -36 0 -9 4 -17 9 -17 5
0 11 -14 15 -31 3 -18 11 -29 18 -26 7 2 19 -3 26 -12 8 -9 11 -11 8 -4 -9 18
16 22 46 7 24 -13 27 -12 22 1 -3 8 -11 12 -17 8 -6 -4 -7 -1 -2 6 5 9 10 10
18 2 16 -16 27 -14 27 5 0 8 5 12 11 9 6 -4 9 -1 8 6 -3 15 10 61 20 69 3 3
12 16 19 29 11 19 11 22 0 16 -7 -3 -5 0 4 8 10 8 15 17 11 20 -3 4 0 7 8 7
11 0 11 2 -1 10 -10 6 -11 10 -2 10 6 0 12 7 12 16 0 9 5 12 12 8 7 -5 9 -2 5
9 -3 8 0 18 7 20 9 4 13 -5 14 -24 0 -16 -3 -27 -9 -24 -5 3 -6 -1 -3 -9 3 -9
11 -13 18 -9 6 3 2 -4 -9 -17 -11 -13 -14 -20 -7 -16 16 10 13 -25 -3 -36 -6
-5 -6 -8 1 -8 14 0 14 -80 0 -80 -6 0 -4 -5 4 -10 12 -7 13 -13 3 -28 -9 -16
-9 -24 3 -40 10 -15 11 -23 3 -28 -8 -5 -9 -3 -4 6 6 9 4 11 -5 5 -10 -6 -9
-11 5 -22 13 -8 14 -13 5 -13 -7 0 -10 -3 -7 -7 4 -3 1 -13 -6 -21 -7 -10 -8
-13 -1 -9 14 8 14 -60 0 -82 -6 -10 -6 -12 2 -7 15 9 16 -16 2 -30 -14 -14 -1
-46 14 -37 7 4 7 1 -1 -9 -7 -8 -10 -18 -6 -21 3 -4 1 -13 -5 -20 -7 -8 -8
-17 -4 -21 12 -12 10 -116 -2 -109 -6 4 -5 -1 3 -11 13 -15 13 -19 0 -27 -9
-5 -10 -9 -2 -9 14 0 13 -40 -2 -40 -7 0 -7 -3 0 -8 15 -10 16 -74 1 -65 -6 4
-5 -1 3 -11 13 -15 13 -19 0 -27 -9 -5 -10 -9 -2 -9 14 0 13 -40 -2 -40 -6 0
-6 -3 1 -8 13 -9 27 -45 15 -38 -14 9 -18 -17 -6 -41 7 -15 15 -19 25 -13 17
11 42 1 33 -14 -4 -7 -2 -7 8 1 12 10 18 10 29 0 10 -10 12 -9 7 5 -5 13 -1
15 21 9 15 -5 33 -6 41 -3 9 3 11 0 7 -9 -4 -8 -1 -6 7 4 18 22 28 22 20 0 -5
-15 -3 -16 8 -5 17 16 32 16 24 -1 -4 -6 0 -4 8 6 18 22 28 22 20 -1 -5 -14
-3 -15 8 -4 16 14 33 16 24 2 -3 -6 1 -7 9 -4 9 3 13 11 9 18 -3 6 4 2 17 -9
19 -16 22 -17 17 -3 -5 14 -1 15 21 9 15 -5 33 -6 41 -3 9 3 11 0 7 -9 -4 -8
-1 -6 7 4 15 18 33 24 22 8 -3 -5 -1 -12 5 -16 5 -3 10 -2 10 3 0 5 11 12 25
14 22 5 24 3 13 -11 -11 -14 -10 -14 13 1 20 12 29 14 38 5 6 -6 11 -7 11 -3
0 5 8 2 17 -5 15 -12 16 -12 11 3 -6 14 -2 15 25 7 40 -11 37 -12 37 7 0 8 4
13 9 9 5 -3 12 -1 15 4 4 5 1 13 -5 17 -8 5 -9 3 -4 -6 5 -8 4 -11 -2 -7 -7 5
-10 52 -3 52 1 0 3 17 4 38 1 20 -2 37 -7 37 -5 0 -4 7 3 15 9 11 9 15 1 15
-9 0 -9 5 -1 20 8 15 8 20 -1 20 -8 0 -8 4 1 15 10 12 10 15 0 15 -9 0 -7 6 5
20 16 18 16 20 1 26 -9 3 -13 11 -9 17 10 17 10 77 0 77 -5 0 -4 7 3 15 9 11
9 15 1 15 -9 0 -9 5 -1 20 8 15 8 20 -1 20 -8 0 -8 4 1 15 10 12 10 15 0 15
-9 0 -7 6 5 20 16 18 16 20 1 26 -9 3 -13 11 -9 17 10 17 10 77 0 77 -5 0 -4
7 3 15 9 11 9 15 1 15 -9 0 -9 5 -1 20 8 14 8 20 0 20 -6 0 -8 5 -4 12 11 17
12 78 1 78 -5 0 -4 7 3 15 9 11 9 15 1 15 -9 0 -9 5 -1 20 8 15 8 20 -1 20 -8
0 -8 4 1 15 10 12 10 15 0 15 -9 0 -7 6 5 20 16 18 16 20 1 26 -9 3 -13 11 -9
17 10 17 10 77 0 77 -5 0 -4 7 3 15 9 11 9 15 1 15 -9 0 -9 5 -1 20 8 15 8 20
-1 20 -8 0 -8 4 1 15 10 12 10 15 0 15 -9 0 -7 6 5 20 16 18 16 20 1 26 -9 3
-13 11 -9 17 10 17 10 77 0 77 -5 0 -4 7 3 15 9 11 9 15 1 15 -9 0 -9 5 -1 20
8 14 8 20 0 20 -6 0 -8 5 -4 12 11 17 12 78 1 78 -5 0 -4 7 3 15 9 11 9 15 1
15 -9 0 -9 5 -1 20 8 15 8 20 -1 20 -8 0 -8 4 1 15 10 12 10 15 0 15 -9 0 -7
6 5 20 16 18 16 20 1 26 -9 3 -13 11 -9 17 10 17 10 77 0 77 -5 0 -4 7 3 15 9
11 9 15 1 15 -9 0 -9 5 -1 20 8 15 8 20 -1 20 -8 0 -8 4 1 15 10 12 10 15 0
15 -9 0 -7 6 5 20 16 18 16 20 1 26 -9 3 -13 11 -9 17 10 17 10 77 0 77 -5 0
-4 7 3 15 9 11 9 15 1 15 -9 0 -9 5 -1 20 8 14 8 20 0 20 -6 0 -8 5 -4 12 11
17 12 78 1 78 -5 0 -4 7 3 15 9 11 9 15 1 15 -9 0 -9 5 -1 20 8 15 8 20 -1 20
-8 0 -8 4 1 15 10 12 10 15 0 15 -9 0 -7 6 5 20 16 18 16 20 1 26 -9 3 -13 11
-9 17 10 17 10 77 0 77 -5 0 -4 7 3 15 9 11 9 15 1 15 -9 0 -9 5 -1 20 8 15 8
20 -1 20 -8 0 -8 4 1 15 10 12 10 15 0 15 -9 0 -7 6 5 20 17 18 17 20 1 26
-14 5 -15 9 -4 15 10 7 10 9 1 9 -7 0 -13 5 -13 11 0 5 5 7 11 3 8 -5 8 -1 0
13 -7 14 -7 23 2 33 9 10 9 14 -1 17 -6 3 -9 10 -6 15 4 6 3 8 -3 5 -6 -4 -24
-2 -41 3 -21 6 -34 5 -38 -2 -5 -7 -2 -8 6 -3 8 5 11 4 6 -3 -9 -15 -38 -3
-29 12 3 6 -3 3 -14 -7 -13 -11 -23 -14 -27 -8 -4 5 -32 8 -64 7 -31 -2 -69 0
-84 5 -17 5 -30 3 -34 -3 -5 -7 -2 -8 6 -3 8 5 11 4 6 -3 -9 -15 -38 -3 -29
12 3 6 -3 3 -14 -7 -12 -10 -24 -14 -27 -9 -3 5 -42 9 -86 8 -44 -1 -80 2 -80
7 0 4 -5 5 -10 2 -6 -4 -8 -11 -5 -16 3 -5 -1 -6 -9 -3 -9 3 -13 11 -9 18 4 6
-1 5 -10 -3 -9 -7 -15 -17 -12 -21 3 -4 -2 -10 -9 -13 -8 -3 -20 -16 -26 -28
-10 -17 -9 -20 1 -13 7 4 2 -8 -11 -26 -13 -19 -18 -30 -9 -26 7 4 6 1 -3 -7
-14 -11 -15 -16 -5 -27 7 -7 8 -10 2 -8 -5 3 -16 0 -23 -8 -10 -11 -10 -14 0
-14 6 0 3 -7 -8 -15 -12 -9 -14 -14 -6 -15 10 0 9 -4 -2 -16 -9 -8 -14 -19
-11 -24 3 -5 1 -11 -5 -15 -5 -3 -10 -15 -10 -26 0 -11 -4 -17 -10 -14 -6 4
-7 -1 -3 -11 4 -12 3 -15 -5 -10 -8 5 -10 2 -6 -8 4 -9 1 -16 -6 -16 -10 0
-10 -3 -1 -14 9 -11 9 -16 0 -22 -8 -4 -9 -3 -5 4 4 7 5 12 2 12 -3 0 -10 -10
-17 -21 -8 -15 -8 -19 0 -15 17 11 13 0 -6 -20 -10 -9 -19 -29 -21 -43 -2 -14
-10 -30 -18 -34 -10 -6 -12 -12 -5 -20 7 -9 2 -16 -15 -24 -22 -10 -24 -9 -20
13 3 13 1 22 -4 19 -5 -3 -11 -1 -15 5 -3 5 0 10 7 10 9 0 9 3 -2 10 -8 5 -11
10 -6 10 6 0 1 7 -10 16 -10 8 -12 12 -4 8 10 -5 9 0 -4 14 -11 12 -16 25 -13
29 4 3 0 15 -10 25 -10 12 -12 18 -4 18 7 0 9 5 6 11 -4 6 -14 8 -22 5 -9 -4
-11 -2 -6 7 12 19 12 37 0 34 -6 -1 -12 8 -13 21 -1 12 -2 27 -3 32 0 6 -9 10
-18 10 -15 0 -16 2 -3 10 8 5 10 10 3 10 -7 0 -9 9 -5 23 5 20 4 21 -12 8 -15
-13 -16 -12 -7 10 6 18 5 30 -5 44 -8 11 -17 18 -20 17 -3 -2 -9 0 -12 4 -4 4
-1 4 6 0 6 -4 12 -4 12 -1 0 11 -23 50 -34 57 -7 5 -6 8 4 8 10 0 11 3 3 8 -6
4 -13 14 -15 22 -5 24 -44 38 -100 36 -29 -2 -65 0 -80 5 -17 5 -30 3 -34 -3
-5 -7 -2 -8 6 -3 8 5 11 4 6 -3 -9 -15 -38 -3 -29 12 3 6 -3 3 -14 -7 -13 -11
-23 -14 -27 -8 -4 5 -32 8 -64 7 -31 -2 -69 0 -84 5 -17 5 -30 3 -34 -3 -5 -7
-2 -8 6 -3 8 5 11 4 6 -3 -9 -15 -38 -3 -29 12 3 6 -3 3 -14 -7 -15 -13 -23
-15 -28 -7 -4 7 -15 10 -25 7 -9 -2 -25 0 -35 6 -14 7 -16 7 -10 -3z m825
-564 c0 -3 -4 -8 -10 -11 -5 -3 -10 -1 -10 4 0 6 5 11 10 11 6 0 10 -2 10 -4z
m-280 -2010 c0 -3 -4 -8 -10 -11 -5 -3 -10 -1 -10 4 0 6 5 11 10 11 6 0 10 -2
10 -4z"/>
</g>
</svg>
